<svg width="32" height="29" viewBox="0 0 32 29" fill="none" xmlns="http://www.w3.org/2000/svg">
<path d="M12.8454 1.21573L0 14.5512L12.8454 27.8867C12.9615 28.044 13.1088 28.1738 13.2776 28.2671C13.4464 28.3605 13.6327 28.4154 13.8238 28.428C14.0149 28.4406 14.2064 28.4106 14.3853 28.3401C14.5642 28.2697 14.7264 28.1603 14.8608 28.0195C14.9952 27.8786 15.0988 27.7096 15.1645 27.5238C15.2301 27.3381 15.2564 27.1399 15.2415 26.9427C15.2266 26.7456 15.1708 26.554 15.078 26.3811C14.9851 26.2081 14.8574 26.0577 14.7034 25.9402L5.09273 15.9317H30.6633C31.0178 15.9317 31.3578 15.7862 31.6085 15.5273C31.8592 15.2685 32 14.9173 32 14.5512C32 14.1851 31.8592 13.8339 31.6085 13.575C31.3578 13.3162 31.0178 13.1707 30.6633 13.1707H5.09273L14.7034 3.16221C14.9534 2.90226 15.0931 2.55042 15.0918 2.18409C15.0906 1.81776 14.9484 1.46694 14.6967 1.20882C14.445 0.950706 14.1044 0.806423 13.7497 0.807718C13.395 0.809011 13.0553 0.955778 12.8053 1.21573H12.8454Z" fill="#717171" fill-opacity="0.52"/>
</svg>
