<svg width="26" height="27" viewBox="0 0 26 27" fill="none" xmlns="http://www.w3.org/2000/svg">
<path d="M9.38896 6.76996L9.12947 7.42227C8.71054 8.47536 8.60524 9.63815 8.82758 10.756C9.16683 12.4616 10.4529 13.7789 12.0779 14.0853L12.221 14.1123C12.7364 14.2094 13.264 14.2094 13.7793 14.1123L13.9224 14.0853C15.5474 13.7789 16.8335 12.4616 17.1728 10.756C17.3951 9.63816 17.2898 8.47536 16.8709 7.42227L16.6114 6.76996" stroke="white" stroke-width="3" stroke-linecap="round"/>
<path d="M23.6025 17.8585C22.8671 21.2728 20.3534 23.9553 17.13 24.7788C14.4211 25.4708 11.5789 25.4708 8.86995 24.7788C5.64658 23.9553 3.13291 21.2728 2.39755 17.8585C1.74051 14.8079 1.90031 11.6245 2.85905 8.6643L3.00149 8.22451C4.05641 4.96737 6.69175 2.56302 9.89714 1.93329L10.7749 1.76084C12.2457 1.47189 13.7544 1.47189 15.2251 1.76084L16.1029 1.93328C19.3083 2.56302 21.9436 4.96737 22.9985 8.22454L23.141 8.6643C24.0997 11.6245 24.2595 14.8079 23.6025 17.8585Z" stroke="white" stroke-width="3"/>
</svg>
