<svg width="26" height="27" viewBox="0 0 26 27" fill="none" xmlns="http://www.w3.org/2000/svg">
<path d="M23.6025 17.8584C22.8671 21.2727 20.3534 23.9552 17.13 24.7787C14.4211 25.4708 11.5789 25.4708 8.86995 24.7787C5.64658 23.9552 3.13291 21.2727 2.39755 17.8584C1.74051 14.8079 1.90031 11.6244 2.85905 8.66423L3.00149 8.22445C4.05641 4.96731 6.69175 2.56296 9.89714 1.93323L10.7749 1.76078C12.2457 1.47183 13.7544 1.47183 15.2251 1.76078L16.1029 1.93322C19.3083 2.56296 21.9436 4.96731 22.9985 8.22448L23.141 8.66424C24.0997 11.6244 24.2595 14.8078 23.6025 17.8584Z" fill="white" stroke="white" stroke-width="3"/>
<path d="M9.38993 6.7699L9.13044 7.42221C8.71152 8.4753 8.60622 9.63809 8.82856 10.7559C9.16781 12.4615 10.4539 13.7789 12.0789 14.0852L12.222 14.1122C12.7374 14.2094 13.2649 14.2094 13.7803 14.1122L13.9234 14.0852C15.5484 13.7789 16.8345 12.4615 17.1737 10.7559C17.3961 9.6381 17.2908 8.4753 16.8718 7.42221L16.6124 6.7699" stroke="url(#paint0_linear_33_9013)" stroke-width="3" stroke-linecap="round"/>
<defs>
<linearGradient id="paint0_linear_33_9013" x1="13.0011" y1="6.7699" x2="13.0011" y2="14.1851" gradientUnits="userSpaceOnUse">
<stop stop-color="#7EBB45"/>
<stop offset="1" stop-color="#1F9636"/>
</linearGradient>
</defs>
</svg>
