<svg width="29" height="27" viewBox="0 0 29 27" fill="none" xmlns="http://www.w3.org/2000/svg">
<path d="M2.42434 4.51753C2.7302 3.27861 3.71117 2.3197 4.95672 2.0421L5.15148 1.99869C6.27735 1.74776 7.44466 1.74776 8.57053 1.99869L8.76529 2.04209C10.0108 2.3197 10.9918 3.27861 11.2977 4.51753C11.5764 5.64649 11.5764 6.82628 11.2977 7.95524C10.9918 9.19416 10.0108 10.1531 8.76529 10.4307L8.57053 10.4741C7.44466 10.725 6.27735 10.725 5.15148 10.4741L4.95672 10.4307C3.71117 10.1531 2.7302 9.19416 2.42434 7.95524C2.14563 6.82628 2.14563 5.64648 2.42434 4.51753Z" fill="white" stroke="white" stroke-width="3"/>
<path d="M2.42434 4.51753C2.7302 3.27861 3.71117 2.3197 4.95672 2.0421L5.15148 1.99869C6.27735 1.74776 7.44466 1.74776 8.57053 1.99869L8.76529 2.04209C10.0108 2.3197 10.9918 3.27861 11.2977 4.51753C11.5764 5.64649 11.5764 6.82628 11.2977 7.95524C10.9918 9.19416 10.0108 10.1531 8.76529 10.4307L8.57053 10.4741C7.44466 10.725 6.27735 10.725 5.15148 10.4741L4.95672 10.4307C3.71117 10.1531 2.7302 9.19416 2.42434 7.95524C2.14563 6.82628 2.14563 5.64648 2.42434 4.51753Z" fill="white" stroke="white" stroke-width="3"/>
<path d="M2.42434 19.0339C2.7302 17.795 3.71117 16.8361 4.95672 16.5585L5.15148 16.515C6.27735 16.2641 7.44466 16.2641 8.57053 16.515L8.76529 16.5585C10.0108 16.8361 10.9918 17.795 11.2977 19.0339C11.5764 20.1628 11.5764 21.3426 11.2977 22.4716C10.9918 23.7105 10.0108 24.6694 8.76529 24.947L8.57053 24.9904C7.44466 25.2414 6.27735 25.2414 5.15148 24.9904L4.95672 24.947C3.71117 24.6694 2.7302 23.7105 2.42434 22.4716C2.14563 21.3426 2.14563 20.1628 2.42434 19.0339Z" fill="white" stroke="white" stroke-width="3"/>
<path d="M17.7022 4.51753C18.008 3.27861 18.989 2.3197 20.2346 2.0421L20.4293 1.99869C21.5552 1.74776 22.7225 1.74776 23.8484 1.99869L24.0431 2.04209C25.2887 2.3197 26.2696 3.27861 26.5755 4.51753C26.8542 5.64649 26.8542 6.82628 26.5755 7.95524C26.2696 9.19416 25.2887 10.1531 24.0431 10.4307L23.8484 10.4741C22.7225 10.725 21.5552 10.725 20.4293 10.4741L20.2346 10.4307C18.989 10.1531 18.008 9.19416 17.7022 7.95524C17.4235 6.82628 17.4235 5.64648 17.7022 4.51753Z" fill="white" stroke="white" stroke-width="3"/>
<path d="M17.7022 19.0339C18.008 17.795 18.989 16.8361 20.2346 16.5585L20.4293 16.515C21.5552 16.2641 22.7225 16.2641 23.8484 16.515L24.0431 16.5585C25.2887 16.8361 26.2696 17.795 26.5755 19.0339C26.8542 20.1628 26.8542 21.3426 26.5755 22.4716C26.2696 23.7105 25.2887 24.6694 24.0431 24.947L23.8484 24.9904C22.7225 25.2414 21.5552 25.2414 20.4293 24.9904L20.2346 24.947C18.989 24.6694 18.008 23.7105 17.7022 22.4716C17.4235 21.3426 17.4235 20.1628 17.7022 19.0339Z" fill="white" stroke="white" stroke-width="3"/>
</svg>
