<svg width="24" height="26" viewBox="0 0 24 26" fill="none" xmlns="http://www.w3.org/2000/svg">
<path fill-rule="evenodd" clip-rule="evenodd" d="M8.70835 23.5257V19.8456C8.70833 18.9096 9.44466 18.149 10.357 18.1427H13.6987C14.6154 18.1427 15.3585 18.9051 15.3585 19.8456V23.5371C15.3583 24.3318 15.9765 24.9814 16.7509 25H18.9787C21.1996 25 23 23.1528 23 20.8742V10.4054C22.9881 9.50899 22.5779 8.66722 21.8861 8.11964L14.2668 1.82236C12.932 0.72588 11.0346 0.72588 9.69975 1.82236L2.11392 8.13107C1.41946 8.67643 1.00855 9.5196 1 10.4168V20.8742C1 23.1528 2.80038 25 5.02127 25H7.24911C8.04273 25 8.68608 24.3399 8.68608 23.5257" fill="white"/>
<path d="M8.70835 23.5257V19.8456C8.70833 18.9096 9.44466 18.149 10.357 18.1427H13.6987C14.6154 18.1427 15.3585 18.9051 15.3585 19.8456V19.8456V23.5371C15.3583 24.3318 15.9765 24.9814 16.7509 25H18.9787C21.1996 25 23 23.1528 23 20.8742V20.8742V10.4054C22.9881 9.50899 22.5779 8.66722 21.8861 8.11964L14.2668 1.82236C12.932 0.72588 11.0346 0.72588 9.69975 1.82236L2.11392 8.13107C1.41946 8.67643 1.00855 9.5196 1 10.4168V20.8742C1 23.1528 2.80038 25 5.02127 25H7.24911C8.04273 25 8.68608 24.3399 8.68608 23.5257V23.5257" stroke="white" stroke-width="1.5" stroke-linecap="round" stroke-linejoin="round"/>
</svg>
