<svg width="29" height="29" viewBox="0 0 29 29" fill="none" xmlns="http://www.w3.org/2000/svg">
<path d="M3.9837 7.2836C3.9837 5.46103 5.4604 3.9843 7.28293 3.98284H8.78444C9.65558 3.98284 10.4902 3.63701 11.1089 3.02413L12.1581 1.9735C13.4436 0.680626 15.5332 0.674789 16.826 1.96036L16.8275 1.96182L16.8406 1.9735L17.8913 3.02413C18.5099 3.63847 19.3446 3.98284 20.2157 3.98284H21.7158C23.5383 3.98284 25.0165 5.45957 25.0165 7.2836V8.78222C25.0165 9.65338 25.3609 10.4895 25.9752 11.1082L27.0258 12.1589C28.3186 13.4444 28.3259 15.534 27.0404 16.8269L27.0389 16.8284L27.0258 16.8415L25.9752 17.8921C25.3609 18.5094 25.0165 19.3441 25.0165 20.2152V21.7168C25.0165 23.5393 23.5398 25.0161 21.7173 25.0161H21.7158H20.2128C19.3417 25.0161 18.5056 25.3619 17.8883 25.9762L16.8377 27.0254C15.5536 28.3183 13.4655 28.3256 12.1727 27.0429C12.1712 27.0415 12.1698 27.04 12.1683 27.0385L12.1552 27.0254L11.106 25.9762C10.4888 25.3619 9.65266 25.0175 8.78152 25.0161H7.28293C5.4604 25.0161 3.9837 23.5393 3.9837 21.7168V20.2123C3.9837 19.3411 3.63787 18.5065 3.02355 17.8892L1.97439 16.8386C0.681551 15.5545 0.674255 13.4663 1.95834 12.1734C1.95834 12.172 1.9598 12.1705 1.96126 12.1691L1.97439 12.1559L3.02355 11.1053C3.63787 10.4866 3.9837 9.65192 3.9837 8.7793V7.2836" stroke="#84A9C0" stroke-width="2" stroke-linecap="round" stroke-linejoin="round"/>
<path d="M10.75 18.25L18.2502 10.7496" stroke="#84A9C0" stroke-width="2" stroke-linecap="round" stroke-linejoin="round"/>
<path d="M18.139 18.1457H18.1522" stroke="#84A9C0" stroke-width="2" stroke-linecap="round" stroke-linejoin="round"/>
<path d="M10.8431 10.8496H10.8563" stroke="#84A9C0" stroke-width="2" stroke-linecap="round" stroke-linejoin="round"/>
</svg>
