<svg width="112" height="112" viewBox="0 0 112 112" fill="none" xmlns="http://www.w3.org/2000/svg">
<path fill-rule="evenodd" clip-rule="evenodd" d="M103.641 80.7149L102.542 105.965C102.491 107.171 102.895 108.232 103.756 109.104C104.611 109.977 105.678 110.423 106.911 110.423H107.624C110.034 110.423 112 108.501 112 106.147V45.2002C112 45.2002 109.398 40.3975 104.926 43.8253C100.454 47.2594 98.4749 53.0226 98.0444 56.4755C97.6139 59.9284 97.8517 72.3087 98.0444 73.6459C98.1858 74.2549 97.9673 75.3849 103.641 80.7149Z" fill="#7EBB45"/>
<path fill-rule="evenodd" clip-rule="evenodd" d="M53.8912 86.4393C53.5638 92.5795 53.0848 99.8624 52.5573 108.106C53.976 109.569 55.704 110.423 57.5774 110.423C59.3781 110.423 61.0454 109.625 62.4338 108.269C61.8942 99.9001 61.4152 92.5293 61.0818 86.3201C60.5786 76.9591 60.4149 70.2538 60.8999 66.8133C64.0405 64.9236 66.2535 60.4283 66.2535 55.1796C66.2535 48.2295 62.3732 42.5916 57.5774 42.5916C52.7816 42.5916 48.9014 48.2295 48.9014 55.1796C48.9014 60.3153 51.0234 64.7352 54.0609 66.694C54.5702 70.1094 54.4065 76.9026 53.8912 86.4393Z" fill="#7EBB45"/>
<path fill-rule="evenodd" clip-rule="evenodd" d="M74.6259 42.5916H75.7657C76.8994 42.5916 77.816 43.5439 77.816 44.7078V55.3952C77.816 56.0363 78.3226 56.5654 78.9497 56.5654C79.5769 56.5654 80.0834 56.0425 80.0834 55.3952V44.7078C80.0834 43.5377 81.0061 42.5916 82.1338 42.5916H82.4715C83.6052 42.5916 84.5219 43.5439 84.5219 44.7078V55.3952C84.5219 56.0363 85.0284 56.5654 85.6556 56.5654C86.2828 56.5654 86.7893 56.0425 86.7893 55.3952V44.7078C86.7893 43.5377 87.712 42.5916 88.8397 42.5916H89.4427C90.5764 42.5916 91.4931 43.5439 91.4931 44.7078V61.0096C91.4931 65.1613 88.9 68.7092 85.2938 70.0101L87.1572 106.603C87.2295 108.06 86.7772 109.342 85.8063 110.4C84.8354 111.458 83.6173 112 82.2062 112H81.6875C80.2764 112 79.0583 111.458 78.0874 110.4C77.1165 109.342 76.6642 108.06 76.7366 106.603L78.606 69.9478C75.0842 68.6034 72.5635 65.099 72.5635 61.0096V44.7078C72.5755 43.5377 73.4922 42.5916 74.6259 42.5916Z" fill="#7EBB45"/>
<path fill-rule="evenodd" clip-rule="evenodd" d="M48.6007 105.652C23.7844 102.526 4.59127 81.1916 4.59127 55.3358C4.59127 27.3316 27.1212 4.62689 54.9098 4.62689C77.4336 4.62689 96.497 19.5413 102.917 40.0976C103.554 39.6866 104.654 39.0826 107.268 38.6217C100.235 16.2284 79.4543 0 54.9098 0C24.5877 0 0 24.7722 0 55.3358C0 84.1309 21.8255 107.788 49.713 110.423C48.5142 108.206 48.4401 106.611 48.6007 105.652Z" fill="#7EBB45"/>
<path fill-rule="evenodd" clip-rule="evenodd" d="M15.0657 59.4739C15.0657 34.4679 35.2957 14.1905 60.2573 14.1905C66.8951 14.1905 73.1976 15.6216 78.873 18.1975C71.9806 13.6741 63.7346 11.0422 54.88 11.0422C30.6698 11.0422 11.042 30.7098 11.042 54.9693C11.042 66.6728 15.6121 77.3061 23.0571 85.1831C18.0151 77.8847 15.0657 69.0247 15.0657 59.4739Z" fill="#7EBB45"/>
</svg>
