<svg width="21" height="14" viewBox="0 0 21 14" fill="none" xmlns="http://www.w3.org/2000/svg">
<path d="M14.5944 7.90624C14.7782 7.52962 14.8714 7.13058 14.8696 6.72845C14.8696 5.8356 14.4071 4.97931 13.584 4.34797C12.7608 3.71662 11.6444 3.36194 10.4803 3.36194C9.96246 3.3624 9.4489 3.43387 8.96387 3.57296L9.99401 4.3876C10.1506 4.36838 10.3089 4.35854 10.4675 4.35815C11.2906 4.35683 12.081 4.60536 12.666 5.04946C13.251 5.49356 13.5831 6.09716 13.5899 6.72845C13.5894 6.85008 13.5765 6.9715 13.5515 7.09161L14.5944 7.90624Z" fill="black"/>
<path d="M20.4164 6.49746C18.2601 3.44009 14.4787 1.58997 10.2942 1.58997C9.15483 1.59202 8.02316 1.73282 6.94141 2.0071L7.97154 2.80212C8.7303 2.65172 9.51048 2.57424 10.2942 2.57146C13.8964 2.57146 17.1724 4.11242 19.1239 6.70848C18.408 7.67163 17.459 8.52111 16.3278 9.21131L17.2364 9.90817C18.5455 9.09811 19.6328 8.0974 20.4356 6.96367L20.6019 6.72811L20.4164 6.49746Z" fill="black"/>
<path d="M1.59319 0.731216L4.44686 2.91996C2.64311 3.81072 1.16892 5.04282 0.166357 6.49751L0 6.72817L0.166357 6.96372C2.32261 10.0211 6.10404 11.8712 10.2886 11.8712C11.9219 11.871 13.5339 11.5874 15.0042 11.0418L18.2033 13.4956L19.3231 12.7595L2.68731 0L1.59319 0.731216ZM7.8316 5.51602L12.0865 8.7795C11.6058 9.00774 11.0523 9.12999 10.4869 9.13283C10.0761 9.13284 9.66933 9.07054 9.29002 8.94951C8.91072 8.82849 8.56636 8.65113 8.27676 8.42764C7.98716 8.20415 7.75804 7.93894 7.60257 7.64728C7.44711 7.35562 7.36838 7.04325 7.37091 6.72817C7.37813 6.29953 7.53738 5.88049 7.8316 5.51602ZM6.90383 4.80443C6.30523 5.45192 6.02465 6.241 6.11179 7.03193C6.19893 7.82287 6.64816 8.56464 7.37994 9.12591C8.11172 9.68718 9.07884 10.0317 10.1101 10.0986C11.1413 10.1654 12.1701 9.95021 13.0143 9.49108L14.038 10.2763C12.8529 10.6648 11.5774 10.8652 10.2886 10.8652C6.68629 10.8652 3.41033 9.32423 1.45883 6.72817C2.39536 5.45625 3.74415 4.39132 5.37463 3.63645L6.90383 4.80443Z" fill="black"/>
</svg>
