<svg width="21" height="18" viewBox="0 0 21 18" fill="none" xmlns="http://www.w3.org/2000/svg">
<path fill-rule="evenodd" clip-rule="evenodd" d="M11.9599 0.705537L14.0283 4.51014C14.231 4.88364 14.6223 5.14263 15.0761 5.20256L19.7032 5.81579C20.8464 5.96776 21.3014 7.24346 20.474 7.97441L17.128 10.9346C16.7992 11.2257 16.6495 11.6442 16.7273 12.0551L17.5169 16.2343C17.7114 17.2681 16.5163 18.0569 15.4945 17.5678L11.3588 15.5932C10.9534 15.3995 10.4678 15.3995 10.0612 15.5932L5.92555 17.5678C4.90372 18.0569 3.70863 17.2681 3.90428 16.2343L4.69275 12.0551C4.77054 11.6442 4.62086 11.2257 4.29203 10.9346L0.946033 7.97441C0.118667 7.24346 0.5736 5.96776 1.71683 5.81579L6.34395 5.20256C6.7977 5.14263 7.19017 4.88364 7.39289 4.51014L9.46012 0.705537C9.97163 -0.235179 11.4484 -0.235179 11.9599 0.705537Z" fill="#FDDC59"/>
</svg>
