<svg width="13" height="14" viewBox="0 0 13 14" fill="none" xmlns="http://www.w3.org/2000/svg">
<path d="M7.39996 13.1524C7.51725 13.0936 7.6161 13.0023 7.68533 12.889C7.75456 12.7756 7.79139 12.6447 7.79167 12.5111V8.65577C7.79167 8.4659 7.86604 8.28328 7.99921 8.14849L12.3349 3.76128C12.6005 3.49242 12.75 3.12719 12.75 2.74673V0.894448C12.7496 0.79973 12.731 0.706017 12.6952 0.618672C12.6594 0.531328 12.6071 0.452068 12.5413 0.385429C12.4755 0.31879 12.3975 0.266081 12.3118 0.230318C12.226 0.194556 12.1342 0.176443 12.0417 0.177015H0.708333C0.316625 0.177015 0 0.497324 0 0.894448V2.74673C0 3.12719 0.149458 3.49242 0.415083 3.76128L4.75079 8.14849C4.81648 8.21478 4.86866 8.29376 4.90428 8.38084C4.93991 8.46792 4.95828 8.56137 4.95833 8.65577V13.2285C4.95833 13.7611 5.51225 14.1075 5.98329 13.8691L7.39996 13.1524Z" fill="#1F9636"/>
</svg>
