<svg width="24" height="27" viewBox="0 0 24 27" fill="none" xmlns="http://www.w3.org/2000/svg">
<path d="M24 19.2325C24 18.8337 23.9127 18.4387 23.7431 18.0702C23.5734 17.7017 23.3248 17.3669 23.0114 17.0849C22.698 16.8029 22.3259 16.5793 21.9164 16.4268C21.507 16.2742 21.0681 16.1958 20.625 16.196H3.375C2.93173 16.1958 2.49277 16.2743 2.08321 16.4269C1.67365 16.5795 1.30151 16.8033 0.988075 17.0854C0.674638 17.3675 0.426045 17.7025 0.256505 18.0711C0.0869656 18.4398 -0.000196805 18.8349 3.33661e-07 19.2339V20.0129C3.33661e-07 21.2186 0.4785 22.3838 1.347 23.3006C3.6975 25.7768 7.2765 27 11.994 27C16.713 27 20.2935 25.7781 22.647 23.3019C23.5199 22.3846 23.9998 21.2167 24 20.0089V19.2325ZM3.3735 18.2213H20.625C21.2445 18.2213 21.747 18.6736 21.747 19.2339V20.0102C21.7472 20.7345 21.46 21.435 20.937 21.9855C19.0515 23.9675 16.101 24.9734 11.9925 24.9734C7.8855 24.9734 4.9365 23.9675 3.057 21.9855C2.53524 21.4356 2.24856 20.7361 2.2485 20.0129V19.2325C2.2489 18.9644 2.36739 18.7074 2.578 18.5178C2.78862 18.3283 3.07415 18.2216 3.372 18.2213H3.3735ZM19.4955 6.75165C19.4957 5.32987 18.9972 3.94433 18.071 2.79259C17.1449 1.64085 15.8384 0.781707 14.3378 0.337672C12.8373 -0.106363 11.2193 -0.112623 9.71452 0.319784C8.20977 0.752191 6.89512 1.60119 5.958 2.74572C5.84931 2.71473 5.73601 2.6988 5.622 2.69847H1.875C1.57663 2.69847 1.29048 2.80515 1.07951 2.99505C0.868527 3.18496 0.75 3.44252 0.75 3.71109V11.1343C0.749606 11.6221 0.856012 12.1052 1.06314 12.556C1.27026 13.0068 1.57404 13.4164 1.95712 13.7615C2.3402 14.1065 2.79507 14.3803 3.29574 14.567C3.7964 14.7538 4.33305 14.8499 4.875 14.8499H5.25V14.8445H5.265C5.51914 14.8449 5.76919 14.787 5.9916 14.6763C6.21402 14.5656 6.40146 14.4058 6.53629 14.2119C6.67111 14.018 6.74888 13.7964 6.76225 13.568C6.77562 13.3395 6.72417 13.1118 6.61273 12.9062C6.5013 12.7006 6.33355 12.5239 6.12529 12.3928C5.91703 12.2617 5.67512 12.1805 5.42235 12.1568C5.16958 12.1331 4.91427 12.1678 4.68048 12.2574C4.44668 12.3471 4.2421 12.4889 4.086 12.6694C3.76117 12.5338 3.48627 12.3173 3.29382 12.0455C3.10137 11.7736 2.99941 11.4579 3 11.1356V10.7994H4.122C4.692 10.7994 5.2215 10.6347 5.652 10.3566C6.51958 11.5946 7.81072 12.5453 9.33083 13.0654C10.8509 13.5854 12.5177 13.6467 14.0798 13.2399C15.642 12.8331 17.0149 11.9803 17.9917 10.81C18.9685 9.63976 19.4963 8.21541 19.4955 6.75165ZM4.4955 6.60853C4.4933 6.70393 4.4933 6.79936 4.4955 6.89476V8.4353C4.4955 8.52482 4.45599 8.61067 4.38567 8.67397C4.31534 8.73727 4.21996 8.77284 4.1205 8.77284H3V4.72506H4.497V6.60853H4.4955ZM6.7455 6.87181V6.63148C6.78061 5.389 7.35814 4.20898 8.35297 3.34705C9.3478 2.48511 10.6798 2.01066 12.0606 2.02647C13.4413 2.04227 14.7595 2.54706 15.7296 3.43148C16.6998 4.31591 17.2438 5.50876 17.2438 6.75165C17.2438 7.99453 16.6998 9.18739 15.7296 10.0718C14.7595 10.9562 13.4413 11.461 12.0606 11.4768C10.6798 11.4926 9.3478 11.0182 8.35297 10.1562C7.35814 9.29431 6.78061 8.1143 6.7455 6.87181Z" fill="#84A9C0"/>
</svg>
