<svg width="286" height="167" viewBox="0 0 286 167" fill="none" xmlns="http://www.w3.org/2000/svg">
<path fill-rule="evenodd" clip-rule="evenodd" d="M180.624 62.1005L179.807 81.3164C179.769 82.2338 180.07 83.0412 180.71 83.7053C181.346 84.3694 182.139 84.7086 183.056 84.7086H183.586C185.378 84.7086 186.84 83.2466 186.84 81.455V35.0731C186.84 35.0731 184.905 31.4182 181.58 34.0268C178.255 36.6402 176.783 41.0261 176.463 43.6539C176.143 46.2816 176.32 55.7032 176.463 56.7209C176.568 57.1843 176.406 58.0443 180.624 62.1005Z" fill="white"/>
<path d="M145.154 52.2489C148.93 52.2489 151.991 47.9601 151.991 42.6696C151.991 37.3791 148.93 33.0903 145.154 33.0903C141.378 33.0903 138.317 37.3791 138.317 42.6696C138.317 47.9601 141.378 52.2489 145.154 52.2489Z" fill="white"/>
<path fill-rule="evenodd" clip-rule="evenodd" d="M142.249 66.453C141.991 71.1256 141.614 76.6677 141.198 82.9408C142.316 84.054 143.678 84.7038 145.154 84.7038C146.573 84.7038 147.887 84.097 148.981 83.0651C148.556 76.6964 148.179 71.0874 147.916 66.3622C147.519 59.2387 147.39 54.1361 147.772 51.5179C150.247 50.0798 151.991 46.659 151.991 42.6649C151.991 37.376 148.933 33.0856 145.154 33.0856C141.375 33.0856 138.317 37.376 138.317 42.6649C138.317 46.573 139.99 49.9365 142.383 51.4272C142.785 54.0262 142.656 59.1957 142.249 66.453Z" fill="white"/>
<path fill-rule="evenodd" clip-rule="evenodd" d="M158.017 33.0903H158.92C159.818 33.0903 160.544 33.8213 160.544 34.7147V42.9181C160.544 43.4102 160.946 43.8163 161.442 43.8163C161.939 43.8163 162.341 43.4149 162.341 42.9181V34.7147C162.341 33.8165 163.072 33.0903 163.965 33.0903H164.233C165.131 33.0903 165.857 33.8213 165.857 34.7147V42.9181C165.857 43.4102 166.258 43.8163 166.755 43.8163C167.252 43.8163 167.653 43.4149 167.653 42.9181V34.7147C167.653 33.8165 168.384 33.0903 169.278 33.0903H169.756C170.654 33.0903 171.38 33.8213 171.38 34.7147V47.2275C171.38 50.4143 169.326 53.1375 166.469 54.1361L167.945 82.2242C168.002 83.3422 167.644 84.3264 166.875 85.1386C166.105 85.9508 165.14 86.3664 164.022 86.3664H163.611C162.493 86.3664 161.528 85.9508 160.759 85.1386C159.99 84.3264 159.632 83.3422 159.689 82.2242L161.17 54.0883C158.38 53.0563 156.383 50.3665 156.383 47.2275V34.7147C156.392 33.8165 157.119 33.0903 158.017 33.0903Z" fill="white"/>
<path fill-rule="evenodd" clip-rule="evenodd" d="M138.026 81.0584C118.839 78.66 103.999 62.2916 103.999 42.4546C103.999 20.9693 121.419 3.54983 142.904 3.54983C160.319 3.54983 175.058 14.9924 180.022 30.7636C180.514 30.4483 181.364 29.9848 183.385 29.6313C177.948 12.4507 161.881 0 142.904 0C119.46 0 100.449 19.0057 100.449 42.4546C100.449 64.5467 117.324 82.6972 138.886 84.7181C137.959 83.0173 137.902 81.7942 138.026 81.0584Z" fill="white"/>
<path fill-rule="evenodd" clip-rule="evenodd" d="M112.275 45.9137C112.275 26.7122 127.84 11.1416 147.047 11.1416C152.154 11.1416 157.003 12.2405 161.37 14.2185C156.067 10.7451 149.722 8.72412 142.909 8.72412C124.281 8.72412 109.179 23.8264 109.179 42.4547C109.179 51.4415 112.695 59.6066 118.424 65.6552C114.544 60.0509 112.275 53.2475 112.275 45.9137Z" fill="white"/>
<path d="M258.405 112.167H262.406L271.813 135.145H272.138L281.545 112.167H285.546V139.848H282.41V118.817H282.14L273.489 139.848H270.462L261.811 118.817H261.541V139.848H258.405V112.167Z" fill="white"/>
<path d="M248.359 112.167H251.711V130.495C251.711 132.387 251.265 134.077 250.373 135.564C249.49 137.041 248.242 138.208 246.629 139.064C245.016 139.911 243.124 140.335 240.952 140.335C238.781 140.335 236.888 139.911 235.275 139.064C233.663 138.208 232.41 137.041 231.518 135.564C230.635 134.077 230.193 132.387 230.193 130.495V112.167H233.545V130.225C233.545 131.576 233.843 132.779 234.437 133.834C235.032 134.879 235.879 135.703 236.978 136.307C238.087 136.902 239.411 137.199 240.952 137.199C242.493 137.199 243.818 136.902 244.926 136.307C246.034 135.703 246.881 134.879 247.467 133.834C248.062 132.779 248.359 131.576 248.359 130.225V112.167Z" fill="white"/>
<path d="M202.503 112.167H206.342L214.019 125.089H214.343L222.02 112.167H225.859L215.857 128.441V139.848H212.505V128.441L202.503 112.167Z" fill="white"/>
<path d="M194.836 112.167H198.188V130.495C198.188 132.387 197.742 134.077 196.85 135.564C195.966 137.041 194.718 138.208 193.106 139.064C191.493 139.911 189.6 140.335 187.429 140.335C185.257 140.335 183.365 139.911 181.752 139.064C180.139 138.208 178.887 137.041 177.995 135.564C177.111 134.077 176.67 132.387 176.67 130.495V112.167H180.022V130.225C180.022 131.576 180.319 132.779 180.914 133.834C181.509 134.879 182.356 135.703 183.455 136.307C184.563 136.902 185.888 137.199 187.429 137.199C188.97 137.199 190.294 136.902 191.403 136.307C192.511 135.703 193.358 134.879 193.944 133.834C194.538 132.779 194.836 131.576 194.836 130.225V112.167Z" fill="white"/>
<path d="M151.915 139.848V112.167H161.593C163.521 112.167 165.111 112.501 166.364 113.167C167.616 113.825 168.549 114.713 169.162 115.83C169.774 116.938 170.081 118.168 170.081 119.52C170.081 120.709 169.869 121.691 169.445 122.466C169.031 123.241 168.481 123.854 167.797 124.305C167.121 124.755 166.386 125.089 165.593 125.305V125.575C166.44 125.629 167.292 125.927 168.148 126.467C169.004 127.008 169.72 127.783 170.297 128.792C170.874 129.801 171.162 131.036 171.162 132.495C171.162 133.883 170.847 135.131 170.216 136.239C169.585 137.348 168.589 138.226 167.229 138.875C165.868 139.524 164.098 139.848 161.917 139.848H151.915ZM155.267 136.875H161.917C164.107 136.875 165.661 136.451 166.58 135.604C167.508 134.748 167.972 133.712 167.972 132.495C167.972 131.558 167.733 130.693 167.256 129.9C166.778 129.098 166.098 128.459 165.215 127.981C164.332 127.494 163.287 127.251 162.079 127.251H155.267V136.875ZM155.267 124.332H161.484C162.494 124.332 163.404 124.133 164.215 123.737C165.035 123.34 165.684 122.782 166.161 122.061C166.648 121.34 166.891 120.493 166.891 119.52C166.891 118.303 166.467 117.272 165.62 116.425C164.773 115.569 163.431 115.141 161.593 115.141H155.267V124.332Z" fill="white"/>
<path d="M145.869 124.521V127.495H133.759V124.521H145.869Z" fill="white"/>
<path d="M127.687 112.167V139.848H124.335V112.167H127.687Z" fill="white"/>
<path d="M117.628 112.167V139.848H114.384L99.3001 118.114H99.0297V139.848H95.6777V112.167H98.9216L114.06 133.955H114.33V112.167H117.628Z" fill="white"/>
<path d="M88.9698 112.167V139.848H85.7259L70.6419 118.114H70.3715V139.848H67.0195V112.167H70.2634L85.4015 133.955H85.6718V112.167H88.9698Z" fill="white"/>
<path d="M60.2993 112.167V139.848H56.9473V112.167H60.2993Z" fill="white"/>
<path d="M28.7725 139.848V112.167H32.1245V124.494H46.8841V112.167H50.2361V139.848H46.8841V127.467H32.1245V139.848H28.7725Z" fill="white"/>
<path d="M23.3559 120.817H20.0039C19.8057 119.853 19.4588 119.006 18.9632 118.276C18.4766 117.547 17.8819 116.934 17.179 116.438C16.4852 115.934 15.7148 115.555 14.8678 115.303C14.0208 115.051 13.1377 114.924 12.2186 114.924C10.5426 114.924 9.02428 115.348 7.66366 116.195C6.31204 117.042 5.23526 118.29 4.4333 119.939C3.64035 121.588 3.24388 123.611 3.24388 126.008C3.24388 128.405 3.64035 130.427 4.4333 132.076C5.23526 133.725 6.31204 134.973 7.66366 135.82C9.02428 136.667 10.5426 137.091 12.2186 137.091C13.1377 137.091 14.0208 136.965 14.8678 136.712C15.7148 136.46 16.4852 136.086 17.179 135.591C17.8819 135.086 18.4766 134.469 18.9632 133.739C19.4588 133 19.8057 132.153 20.0039 131.198H23.3559C23.1036 132.613 22.6441 133.879 21.9773 134.996C21.3105 136.113 20.4815 137.064 19.4903 137.848C18.4991 138.623 17.3863 139.213 16.1518 139.618C14.9263 140.024 13.6153 140.227 12.2186 140.227C9.85778 140.227 7.75827 139.65 5.92007 138.497C4.08188 137.343 2.63565 135.703 1.58139 133.577C0.52713 131.45 0 128.927 0 126.008C0 123.088 0.52713 120.565 1.58139 118.439C2.63565 116.312 4.08188 114.672 5.92007 113.519C7.75827 112.365 9.85778 111.789 12.2186 111.789C13.6153 111.789 14.9263 111.991 16.1518 112.397C17.3863 112.802 18.4991 113.397 19.4903 114.181C20.4815 114.956 21.3105 115.902 21.9773 117.019C22.6441 118.128 23.1036 119.394 23.3559 120.817Z" fill="white"/>
<path d="M206.81 161.345C206.81 162.498 206.602 163.493 206.186 164.333C205.77 165.172 205.199 165.819 204.474 166.275C203.748 166.73 202.919 166.957 201.988 166.957C201.056 166.957 200.227 166.73 199.502 166.275C198.776 165.819 198.205 165.172 197.789 164.333C197.373 163.493 197.165 162.498 197.165 161.345C197.165 160.193 197.373 159.197 197.789 158.358C198.205 157.519 198.776 156.871 199.502 156.416C200.227 155.961 201.056 155.733 201.988 155.733C202.919 155.733 203.748 155.961 204.474 156.416C205.199 156.871 205.77 157.519 206.186 158.358C206.602 159.197 206.81 160.193 206.81 161.345ZM205.53 161.345C205.53 160.399 205.372 159.601 205.055 158.95C204.742 158.299 204.317 157.807 203.78 157.472C203.247 157.138 202.649 156.971 201.988 156.971C201.326 156.971 200.727 157.138 200.19 157.472C199.656 157.807 199.231 158.299 198.915 158.95C198.602 159.601 198.445 160.399 198.445 161.345C198.445 162.291 198.602 163.09 198.915 163.741C199.231 164.391 199.656 164.884 200.19 165.218C200.727 165.553 201.326 165.72 201.988 165.72C202.649 165.72 203.247 165.553 203.78 165.218C204.317 164.884 204.742 164.391 205.055 163.741C205.372 163.09 205.53 162.291 205.53 161.345Z" fill="white"/>
<path d="M190.165 166.808H186.794V155.883H190.315C191.375 155.883 192.282 156.101 193.035 156.539C193.789 156.973 194.367 157.597 194.769 158.411C195.171 159.222 195.372 160.193 195.372 161.324C195.372 162.462 195.169 163.442 194.764 164.263C194.358 165.081 193.768 165.711 192.993 166.152C192.218 166.589 191.275 166.808 190.165 166.808ZM188.117 165.634H190.08C190.983 165.634 191.732 165.46 192.326 165.112C192.92 164.763 193.363 164.267 193.654 163.623C193.946 162.979 194.092 162.213 194.092 161.324C194.092 160.442 193.948 159.683 193.66 159.046C193.372 158.406 192.941 157.915 192.369 157.574C191.796 157.229 191.083 157.056 190.229 157.056H188.117V165.634Z" fill="white"/>
<path d="M177.09 155.883L180.334 165.08H180.462L183.705 155.883H185.092L181.08 166.808H179.715L175.703 155.883H177.09Z" fill="white"/>
<path d="M167.965 166.808H166.578L170.59 155.883H171.955L175.967 166.808H174.58L171.315 157.611H171.23L167.965 166.808ZM168.477 162.54H174.068V163.714H168.477V162.54Z" fill="white"/>
<path d="M163.913 158.614C163.849 158.073 163.589 157.654 163.134 157.355C162.679 157.056 162.121 156.907 161.459 156.907C160.975 156.907 160.552 156.985 160.189 157.142C159.83 157.298 159.549 157.513 159.347 157.787C159.147 158.061 159.048 158.372 159.048 158.721C159.048 159.012 159.117 159.263 159.256 159.473C159.398 159.679 159.579 159.852 159.8 159.99C160.02 160.125 160.252 160.237 160.493 160.326C160.735 160.412 160.958 160.481 161.16 160.534L162.27 160.833C162.554 160.908 162.871 161.011 163.22 161.143C163.572 161.274 163.908 161.454 164.228 161.681C164.551 161.905 164.818 162.194 165.028 162.546C165.238 162.898 165.343 163.33 165.343 163.842C165.343 164.432 165.188 164.966 164.879 165.442C164.573 165.919 164.125 166.298 163.534 166.579C162.947 166.86 162.234 167 161.395 167C160.613 167 159.935 166.874 159.363 166.621C158.794 166.369 158.345 166.017 158.018 165.565C157.695 165.113 157.511 164.589 157.469 163.991H158.834C158.87 164.404 159.009 164.745 159.251 165.016C159.496 165.282 159.805 165.481 160.179 165.613C160.556 165.741 160.961 165.805 161.395 165.805C161.9 165.805 162.354 165.723 162.755 165.56C163.157 165.393 163.476 165.161 163.71 164.866C163.945 164.567 164.062 164.219 164.062 163.821C164.062 163.458 163.961 163.163 163.758 162.935C163.556 162.707 163.289 162.523 162.958 162.38C162.627 162.238 162.27 162.114 161.886 162.007L160.542 161.623C159.688 161.377 159.012 161.027 158.514 160.572C158.016 160.117 157.767 159.521 157.767 158.785C157.767 158.173 157.933 157.64 158.264 157.184C158.598 156.726 159.046 156.37 159.608 156.117C160.173 155.861 160.805 155.733 161.502 155.733C162.206 155.733 162.832 155.86 163.38 156.112C163.927 156.361 164.361 156.702 164.681 157.136C165.005 157.57 165.176 158.063 165.193 158.614H163.913Z" fill="white"/>
<path d="M143.477 157.056V155.883H151.671V157.056H148.235V166.808H146.912V157.056H143.477Z" fill="white"/>
<path d="M135.096 166.808V155.883H141.689V157.056H136.419V160.748H141.348V161.921H136.419V165.634H141.775V166.808H135.096Z" fill="white"/>
<path d="M132.449 155.883V166.808H131.168L125.215 158.23H125.108V166.808H123.785V155.883H125.065L131.04 164.482H131.147V155.883H132.449Z" fill="white"/>
<path d="M114.176 166.808V155.883H117.867C118.721 155.883 119.422 156.028 119.969 156.32C120.517 156.608 120.922 157.005 121.186 157.51C121.449 158.015 121.58 158.589 121.58 159.233C121.58 159.876 121.449 160.447 121.186 160.945C120.922 161.443 120.519 161.834 119.975 162.119C119.43 162.4 118.735 162.54 117.889 162.54H114.901V161.345H117.846C118.429 161.345 118.899 161.26 119.254 161.089C119.614 160.918 119.873 160.677 120.033 160.364C120.197 160.047 120.279 159.67 120.279 159.233C120.279 158.795 120.197 158.413 120.033 158.086C119.87 157.759 119.608 157.506 119.249 157.328C118.89 157.147 118.415 157.056 117.825 157.056H115.499V166.808H114.176ZM119.318 161.9L122.007 166.808H120.471L117.825 161.9H119.318Z" fill="white"/>
<path d="M105.198 166.808V155.883H111.792V157.056H106.521V160.748H111.45V161.921H106.521V165.634H111.877V166.808H105.198Z" fill="white"/>
<path d="M94.9619 157.056V155.883H103.156V157.056H99.7204V166.808H98.3974V157.056H94.9619Z" fill="white"/>
<path d="M92.9125 155.883V166.808H91.6322L85.6787 158.23H85.572V166.808H84.249V155.883H85.5293L91.5041 164.482H91.6108V155.883H92.9125Z" fill="white"/>
<path d="M81.5964 155.883V166.808H80.2734V155.883H81.5964Z" fill="white"/>
<path d="M237.89 148.567H48.8506V150.001H237.89V148.567Z" fill="white"/>
</svg>
