<svg width="29" height="30" viewBox="0 0 29 30" fill="none" xmlns="http://www.w3.org/2000/svg">
<path d="M2.43889 5.10958C2.73582 3.79307 3.75271 2.75828 5.06385 2.43842V2.43842C6.24464 2.15036 7.47737 2.15036 8.65817 2.43842V2.43842C9.9693 2.75828 10.9862 3.79307 11.2831 5.10958L11.3184 5.26583C11.5841 6.44414 11.5841 7.66684 11.3184 8.84515L11.2831 9.00139C10.9862 10.3179 9.9693 11.3527 8.65817 11.6726V11.6726C7.47737 11.9606 6.24464 11.9606 5.06385 11.6726V11.6726C3.75271 11.3527 2.73582 10.3179 2.43889 9.0014L2.40365 8.84515C2.13789 7.66684 2.13789 6.44413 2.40365 5.26582L2.43889 5.10958Z" stroke="white" stroke-width="3"/>
<path d="M2.43889 5.10958C2.73582 3.79307 3.75271 2.75828 5.06385 2.43842V2.43842C6.24464 2.15036 7.47737 2.15036 8.65817 2.43842V2.43842C9.9693 2.75828 10.9862 3.79307 11.2831 5.10958L11.3184 5.26583C11.5841 6.44414 11.5841 7.66684 11.3184 8.84515L11.2831 9.00139C10.9862 10.3179 9.9693 11.3527 8.65817 11.6726V11.6726C7.47737 11.9606 6.24464 11.9606 5.06385 11.6726V11.6726C3.75271 11.3527 2.73582 10.3179 2.43889 9.0014L2.40365 8.84515C2.13789 7.66684 2.13789 6.44413 2.40365 5.26582L2.43889 5.10958Z" stroke="white" stroke-width="3"/>
<path d="M2.43889 20.9987C2.73582 19.6822 3.75271 18.6474 5.06385 18.3276V18.3276C6.24464 18.0395 7.47737 18.0395 8.65817 18.3276V18.3276C9.9693 18.6474 10.9862 19.6822 11.2831 20.9987L11.3184 21.155C11.5841 22.3333 11.5841 23.556 11.3184 24.7343L11.2831 24.8906C10.9862 26.2071 9.9693 27.2419 8.65817 27.5617V27.5617C7.47737 27.8498 6.24464 27.8498 5.06385 27.5617V27.5617C3.75271 27.2419 2.73582 26.2071 2.43889 24.8906L2.40365 24.7343C2.13789 23.556 2.13789 22.3333 2.40365 21.155L2.43889 20.9987Z" stroke="white" stroke-width="3"/>
<path d="M17.7167 5.10958C18.0137 3.79307 19.0305 2.75828 20.3417 2.43842V2.43842C21.5225 2.15036 22.7552 2.15036 23.936 2.43842V2.43842C25.2471 2.75828 26.264 3.79307 26.561 5.10958L26.5962 5.26583C26.862 6.44414 26.862 7.66684 26.5962 8.84515L26.561 9.00139C26.264 10.3179 25.2471 11.3527 23.936 11.6726V11.6726C22.7552 11.9606 21.5225 11.9606 20.3417 11.6726V11.6726C19.0305 11.3527 18.0137 10.3179 17.7167 9.0014L17.6815 8.84515C17.4157 7.66684 17.4157 6.44413 17.6815 5.26582L17.7167 5.10958Z" stroke="white" stroke-width="3"/>
<path d="M17.7167 20.9987C18.0137 19.6822 19.0305 18.6474 20.3417 18.3276V18.3276C21.5225 18.0395 22.7552 18.0395 23.936 18.3276V18.3276C25.2471 18.6474 26.264 19.6822 26.561 20.9987L26.5962 21.155C26.862 22.3333 26.862 23.556 26.5962 24.7343L26.561 24.8906C26.264 26.2071 25.2471 27.2419 23.936 27.5617V27.5617C22.7552 27.8498 21.5225 27.8498 20.3417 27.5617V27.5617C19.0305 27.2419 18.0137 26.2071 17.7167 24.8906L17.6815 24.7343C17.4157 23.556 17.4157 22.3333 17.6815 21.155L17.7167 20.9987Z" stroke="white" stroke-width="3"/>
</svg>
