<svg width="29" height="29" viewBox="0 0 29 29" fill="none" xmlns="http://www.w3.org/2000/svg">
<path d="M3.5611 6.2506L11.7751 12.4451C13.4051 13.6743 15.5949 13.6743 17.2249 12.4451L25.4389 6.2506M1.54766 19.2269C0.817445 16.1228 0.817446 12.8772 1.54766 9.77312C2.50354 5.70975 5.55592 2.56801 9.42764 1.66243L10.0726 1.51157C12.9889 0.829476 16.0112 0.829476 18.9274 1.51157L19.5724 1.66243C23.4441 2.56801 26.4965 5.70976 27.4523 9.77313C28.1826 12.8772 28.1826 16.1228 27.4523 19.2269C26.4965 23.2902 23.4441 26.432 19.5724 27.3376L18.9274 27.4884C16.0112 28.1705 12.9889 28.1705 10.0726 27.4884L9.42763 27.3376C5.55591 26.432 2.50354 23.2903 1.54766 19.2269Z" stroke="#84A9C0" stroke-width="2" stroke-linecap="round"/>
</svg>
