<svg width="29" height="29" viewBox="0 0 29 29" fill="none" xmlns="http://www.w3.org/2000/svg">
<path d="M10.0688 6.93994L9.75029 7.6814C9.23615 8.87841 9.10692 10.2001 9.37979 11.4707C9.79615 13.4094 11.3745 14.9068 13.3689 15.255L13.5445 15.2857C14.177 15.3961 14.8244 15.3961 15.4569 15.2857L15.6325 15.255C17.6269 14.9068 19.2052 13.4094 19.6216 11.4707C19.8945 10.2001 19.7652 8.87841 19.2511 7.6814L18.9326 6.93994" stroke="#84A9C0" stroke-width="2" stroke-linecap="round"/>
<path d="M27.5121 19.544C26.6096 23.4249 23.5246 26.474 19.5687 27.41C16.244 28.1967 12.7559 28.1967 9.43131 27.41C5.47535 26.474 2.39039 23.4249 1.4879 19.544C0.681537 16.0765 0.877647 12.458 2.05429 9.09325L2.2291 8.59337C3.52378 4.89108 6.75806 2.15814 10.6919 1.44235L11.7692 1.24633C13.5743 0.917889 15.4258 0.917889 17.2309 1.24633L18.3081 1.44234C22.242 2.15814 25.4763 4.89109 26.7709 8.59339L26.9457 9.09326C28.1224 12.458 28.3185 16.0765 27.5121 19.544Z" stroke="#84A9C0" stroke-width="2"/>
</svg>
