<svg width="21" height="21" viewBox="0 0 21 21" fill="none" xmlns="http://www.w3.org/2000/svg">
<path fill-rule="evenodd" clip-rule="evenodd" d="M14.9226 13.4362L20.5268 19.0404C20.7238 19.2375 20.8344 19.5048 20.8343 19.7834C20.8342 20.0621 20.7234 20.3293 20.5263 20.5263C20.3292 20.7233 20.0619 20.8339 19.7832 20.8338C19.5045 20.8337 19.2373 20.7229 19.0404 20.5258L13.4362 14.9216C11.7609 16.2192 9.65419 16.8298 7.54466 16.6293C5.43512 16.4287 3.48122 15.4321 2.08044 13.842C0.679663 12.252 -0.0627761 10.1881 0.00416284 8.0701C0.0711018 5.95211 0.942391 3.93917 2.44078 2.44078C3.93917 0.942391 5.95211 0.0711018 8.07009 0.00416284C10.1881 -0.0627761 12.252 0.679663 13.842 2.08044C15.4321 3.48123 16.4287 5.43513 16.6293 7.54466C16.8298 9.65419 16.2192 11.7609 14.9216 13.4362H14.9226ZM8.33411 14.5831C9.99171 14.5831 11.5814 13.9246 12.7535 12.7525C13.9256 11.5804 14.5841 9.99067 14.5841 8.33307C14.5841 6.67547 13.9256 5.08575 12.7535 3.91365C11.5814 2.74155 9.99171 2.08307 8.33411 2.08307C6.6765 2.08307 5.08679 2.74155 3.91469 3.91365C2.74259 5.08575 2.08411 6.67547 2.08411 8.33307C2.08411 9.99067 2.74259 11.5804 3.91469 12.7525C5.08679 13.9246 6.6765 14.5831 8.33411 14.5831Z" fill="#84A9C0"/>
</svg>
