<svg width="29" height="29" viewBox="0 0 29 29" fill="none" xmlns="http://www.w3.org/2000/svg">
<path fill-rule="evenodd" clip-rule="evenodd" d="M27.6071 8.50857L26.6623 6.99143C25.863 5.7077 24.0916 5.26484 22.7024 6.00143V6.00143C22.0411 6.3619 21.252 6.46417 20.5092 6.28569C19.7663 6.1072 19.1307 5.66263 18.7424 5.05C18.4927 4.6606 18.3585 4.21708 18.3534 3.76429V3.76429C18.3759 3.03834 18.08 2.33487 17.5329 1.81412C16.9858 1.29337 16.2343 0.999701 15.4495 1H13.5459C12.777 0.999992 12.0398 1.28351 11.4974 1.78782C10.955 2.29213 10.6522 2.97565 10.6559 3.68714V3.68714C10.6331 5.15613 9.33959 6.33587 7.75193 6.33571C7.2626 6.33101 6.7833 6.20683 6.36248 5.97571V5.97571C4.97328 5.23912 3.20189 5.68198 2.40256 6.96571L1.38827 8.50857C0.589914 9.7907 1.06199 11.4288 2.44425 12.1729V12.1729C3.34274 12.6529 3.89623 13.54 3.89623 14.5C3.89623 15.46 3.34274 16.3471 2.44425 16.8271V16.8271C1.06374 17.5662 0.591154 19.2003 1.38827 20.4786V20.4786L2.34699 22.0086C2.7215 22.6339 3.34987 23.0953 4.09306 23.2908C4.83624 23.4862 5.63296 23.3996 6.30691 23.05V23.05C6.96944 22.6923 7.75895 22.5943 8.49994 22.7778C9.24094 22.9612 9.87203 23.411 10.2529 24.0271C10.5027 24.4165 10.6369 24.8601 10.642 25.3129V25.3129C10.642 26.7969 11.9421 28 13.5459 28H15.4495C17.0478 28 18.3457 26.8048 18.3534 25.3257V25.3257C18.3497 24.612 18.6544 23.9265 19.1998 23.4218C19.7452 22.9171 20.486 22.6351 21.2573 22.6386C21.7455 22.6507 22.2228 22.7743 22.6468 22.9986V22.9986C24.0324 23.7373 25.8026 23.3005 26.6067 22.0214V22.0214L27.6071 20.4786C27.9943 19.8635 28.1006 19.131 27.9024 18.4433C27.7042 17.7555 27.2179 17.1692 26.5511 16.8143V16.8143C25.8844 16.4593 25.398 15.8731 25.1998 15.1853C25.0016 14.4975 25.1079 13.765 25.4951 13.15C25.747 12.7432 26.1115 12.4059 26.5511 12.1729V12.1729C27.9251 11.4292 28.3961 9.80067 27.6071 8.52143V8.52143V8.50857Z" stroke="#84A9C0" stroke-width="2" stroke-linecap="round" stroke-linejoin="round"/>
<ellipse cx="14.5045" cy="14.5" rx="4.0016" ry="3.70286" stroke="#84A9C0" stroke-width="2" stroke-linecap="round" stroke-linejoin="round"/>
</svg>
