<svg width="15" height="17" viewBox="0 0 15 17" fill="none" xmlns="http://www.w3.org/2000/svg">
<path d="M5.24976 6H3.60016C2.69007 6 2.23469 6 1.88708 6.18166C1.58132 6.34144 1.33291 6.59623 1.17711 6.90983C1 7.26635 1 7.73341 1 8.66683V13.3335C1 14.2669 1 14.7334 1.17711 15.0899C1.33291 15.4035 1.58132 15.6587 1.88708 15.8185C2.23435 16 2.6892 16 3.59751 16H11.4025C12.3108 16 12.765 16 13.1123 15.8185C13.418 15.6587 13.6673 15.4035 13.8231 15.0899C14 14.7337 14 14.2679 14 13.3363V8.66409C14 7.73249 14 7.266 13.8231 6.90983C13.6673 6.59623 13.418 6.34144 13.1123 6.18166C12.7647 6 12.3102 6 11.4002 6H9.74976M5.24976 6H9.74976M5.24976 6C5.1462 6 5.0625 5.9139 5.0625 5.80769V3.5C5.0625 2.11929 6.15381 1 7.5 1C8.84619 1 9.9375 2.11929 9.9375 3.5V5.80769C9.9375 5.9139 9.85331 6 9.74976 6" stroke="#7EBB45" stroke-linecap="round" stroke-linejoin="round"/>
</svg>
