<svg width="18" height="17" viewBox="0 0 18 17" fill="none" xmlns="http://www.w3.org/2000/svg">
<path d="M17.6777 4.14717C17.523 3.88172 17.3015 3.66051 17.0349 3.50511C16.7682 3.34971 16.4654 3.26544 16.1561 3.2605H4.69943L4.1803 1.25663C4.12785 1.06319 4.01083 0.893047 3.84831 0.773903C3.68578 0.65476 3.48732 0.593639 3.28525 0.600496H1.49515C1.25777 0.600496 1.03011 0.693912 0.862252 0.860195C0.694397 1.02648 0.600098 1.25201 0.600098 1.48716C0.600098 1.72232 0.694397 1.94785 0.862252 2.11413C1.03011 2.28042 1.25777 2.37383 1.49515 2.37383H2.60501L5.07535 11.4711C5.1278 11.6645 5.24482 11.8346 5.40735 11.9538C5.56987 12.0729 5.76833 12.134 5.9704 12.1272H14.0259C14.1911 12.1267 14.3531 12.0809 14.4937 11.9948C14.6343 11.9087 14.7481 11.7857 14.8225 11.6395L17.7582 5.82298C17.8855 5.55876 17.9447 5.26745 17.9306 4.97504C17.9166 4.68263 17.8297 4.39821 17.6777 4.14717Z" fill="#1F9636"/>
<path d="M5.52275 16.5602C6.26424 16.5602 6.86533 15.9647 6.86533 15.2302C6.86533 14.4956 6.26424 13.9001 5.52275 13.9001C4.78127 13.9001 4.18018 14.4956 4.18018 15.2302C4.18018 15.9647 4.78127 16.5602 5.52275 16.5602Z" fill="#1F9636"/>
<path d="M14.4734 16.5602C15.2149 16.5602 15.816 15.9647 15.816 15.2302C15.816 14.4956 15.2149 13.9001 14.4734 13.9001C13.732 13.9001 13.1309 14.4956 13.1309 15.2302C13.1309 15.9647 13.732 16.5602 14.4734 16.5602Z" fill="#1F9636"/>
</svg>
