<svg width="23" height="20" viewBox="0 0 23 20" fill="none" xmlns="http://www.w3.org/2000/svg">
<path fill-rule="evenodd" clip-rule="evenodd" d="M12.7632 1.70554L14.8317 5.51014C15.0344 5.88364 15.4257 6.14263 15.8794 6.20256L20.5065 6.81579C21.6498 6.96776 22.1047 8.24346 21.2773 8.97441L17.9313 11.9346C17.6025 12.2257 17.4528 12.6442 17.5306 13.0551L18.3203 17.2343C18.5147 18.2681 17.3196 19.0569 16.2978 18.5678L12.1622 16.5932C11.7567 16.3995 11.2712 16.3995 10.8645 16.5932L6.72889 18.5678C5.70706 19.0569 4.51198 18.2681 4.70762 17.2343L5.4961 13.0551C5.57388 12.6442 5.4242 12.2257 5.09538 11.9346L1.74938 8.97441C0.922012 8.24346 1.37695 6.96776 2.52017 6.81579L7.14729 6.20256C7.60105 6.14263 7.99351 5.88364 8.19623 5.51014L10.2635 1.70554C10.775 0.764821 12.2517 0.764821 12.7632 1.70554Z" stroke="#717171" stroke-opacity="0.7" stroke-linecap="round" stroke-linejoin="round"/>
</svg>
