<svg width="29" height="29" viewBox="0 0 29 29" fill="none" xmlns="http://www.w3.org/2000/svg">
<path d="M7.47816 10.599L9.03857 12.1594L12.1594 9.03857M16.0604 11.3792H21.5218M7.47816 18.401L9.03857 19.9614L12.1594 16.8406M16.0604 19.1812H21.5218M1.52932 19.0744C0.823561 16.0656 0.823561 12.9344 1.52932 9.92565C2.50656 5.75951 5.75951 2.50656 9.92565 1.52932C12.9344 0.823562 16.0656 0.823561 19.0744 1.52931C23.2405 2.50656 26.4934 5.75951 27.4707 9.92565C28.1764 12.9344 28.1764 16.0656 27.4707 19.0743C26.4934 23.2405 23.2405 26.4934 19.0743 27.4707C16.0656 28.1764 12.9344 28.1764 9.92565 27.4707C5.75952 26.4934 2.50656 23.2405 1.52932 19.0744Z" stroke="#84A9C0" stroke-width="2" stroke-linecap="round" stroke-linejoin="round"/>
</svg>
