<svg width="30" height="29" viewBox="0 0 30 29" fill="none" xmlns="http://www.w3.org/2000/svg">
<path d="M15.3125 8.42835e-09C16.3502 -6.5669e-05 17.3485 0.383711 18.1028 1.0726C18.857 1.7615 19.31 2.70328 19.3687 3.70475L19.375 3.92708H25.9375C26.175 3.92715 26.4037 4.01438 26.5772 4.17113C26.7508 4.32789 26.8563 4.54249 26.8725 4.77156C26.8887 5.00064 26.8144 5.22712 26.6645 5.40524C26.5146 5.58335 26.3003 5.69983 26.065 5.73113L25.9375 5.73958H24.9425L23.3425 21.4721C23.2623 22.2564 22.8964 22.9877 22.31 23.5353C21.7236 24.0829 20.9549 24.4112 20.1413 24.4615L19.9212 24.4688H10.7037C9.88808 24.4687 9.09899 24.1883 8.47751 23.6776C7.85602 23.167 7.44265 22.4593 7.31125 21.6811L7.2825 21.4709L5.68125 5.73958H4.6875C4.46095 5.73957 4.24207 5.66026 4.07134 5.51632C3.9006 5.37238 3.78956 5.17354 3.75875 4.95658L3.75 4.83333C3.75001 4.61434 3.83205 4.40275 3.98096 4.23771C4.12986 4.07266 4.33556 3.96533 4.56 3.93554L4.6875 3.92708H11.25C11.25 2.88556 11.678 1.88669 12.4399 1.15022C13.2017 0.413745 14.2351 8.42835e-09 15.3125 8.42835e-09ZM23.0588 5.73958H7.565L9.14875 21.2933C9.18382 21.6403 9.34203 21.9649 9.59653 22.212C9.85103 22.4592 10.1861 22.6136 10.545 22.649L10.7037 22.6562H19.9212C20.6713 22.6562 21.3075 22.1427 21.4525 21.4455L21.4775 21.2933L23.0575 5.73958H23.0588ZM17.5 9.0625C17.7265 9.06251 17.9454 9.14182 18.1162 9.28576C18.2869 9.4297 18.3979 9.62854 18.4288 9.8455L18.4375 9.96875V18.4271C18.4374 18.6567 18.3472 18.8777 18.185 19.0455C18.0229 19.2133 17.8009 19.3153 17.5639 19.3309C17.3269 19.3466 17.0926 19.2747 16.9084 19.1298C16.7241 18.9849 16.6036 18.7778 16.5712 18.5503L16.5625 18.4271V9.96875C16.5625 9.7284 16.6613 9.49789 16.8371 9.32794C17.0129 9.15798 17.2514 9.0625 17.5 9.0625ZM13.125 9.0625C13.3515 9.06251 13.5704 9.14182 13.7412 9.28576C13.9119 9.4297 14.0229 9.62854 14.0538 9.8455L14.0625 9.96875V18.4271C14.0624 18.6567 13.9722 18.8777 13.81 19.0455C13.6479 19.2133 13.4259 19.3153 13.1889 19.3309C12.9519 19.3466 12.7176 19.2747 12.5334 19.1298C12.3491 18.9849 12.2286 18.7778 12.1962 18.5503L12.1875 18.4271V9.96875C12.1875 9.7284 12.2863 9.49789 12.4621 9.32794C12.6379 9.15798 12.8764 9.0625 13.125 9.0625ZM15.3125 1.8125C14.7635 1.81252 14.2346 2.01208 13.8308 2.37157C13.4269 2.73106 13.1777 3.2242 13.1325 3.75308L13.125 3.92708H17.5C17.5 3.36626 17.2695 2.82841 16.8593 2.43185C16.4491 2.03529 15.8927 1.8125 15.3125 1.8125Z" fill="#717171" fill-opacity="0.7"/>
</svg>
